<svg version="1.1" id="Layer_2_copy" xmlns="http://www.w3.org/2000/svg" x="0" y="0" viewBox="0 0 304.6 48.3" xml:space="preserve"><style>.st0{fill:#8dc63f}.st1{opacity:.2}.st3,.st4{fill:#fff}.st4{opacity:.2}.st5{opacity:.8}.st6{fill:#fff200}.st7{fill:#82d1db}</style><path class="st0" d="M32.7 11.9c-3.6.3-3.2 3.9-3.2 3.9l.9 10.1s.1 1.2-1.1 1.3c-.3 0-.8.1-1.5.1C27.1 20 26.6 13 26.6 13S25.8-.1 16.3.7c0 0-8.2.7-7 13.8l.9 9.4c-.9.1-1.6.1-1.9.2-1 .1-1.1-.9-1.1-.9L6.5 15s-.3-2.9-3.2-2.6S.6 15.1.6 15.1s.9 9.6 1.1 12c.3 3.4 3.2 3.1 3.2 3.1l5.8-.5 1.4 15.7s-1.4.7-.4 1.1c0 0-1.6 1.7 8.8.8 10.4-.9 9-2.4 9-2.4s1.4-.7.4-1.1c-.4-.2-.9-4.2-1.4-9.4l6.2-.6s3.6-.3 3.2-4.5c-.3-3-1.3-14.9-1.3-14.9s-.3-2.8-3.9-2.5z"/><path d="M32.7 11.3c-1.1.1-2.1.5-2.8 1.3-.5.6-.8 1.3-1 2.1-.1.6-.1 1.3 0 1.9.3 2.9.5 5.8.8 8.7 0 .3 0 .6.1.8 0 .1 0-.2 0 0v.2c0 .1.1-.1 0 0 0 0 0 .1-.1.1.1-.1 0 0 0 0l-.1.1c-.1.1.1-.1-.1 0H29c-.4 0-.8.1-1.2.1.2.2.5.4.7.6-.4-4-.7-8-1-12-.1-1-.1-2-.2-3-.2-1.6-.5-3.1-1.1-4.6-.7-2-1.7-4-3.3-5.4C21.1.5 18.7-.2 16.3 0c-.7.1-1.4.3-2 .6-1.5.7-2.7 1.8-3.6 3.2-1.5 2.3-2 5-2 7.7 0 2 .2 4 .4 5.9.2 2 .4 4.1.6 6.1v.4c.2-.2.4-.5.6-.7-.4 0-.8.1-1.2.1-.3 0-.5.1-.8.1h-.1c.1.1 0 0 0 0 .1.1 0 0 0 0 0-.1.1.1 0 0v-.1c-.1-.2 0 .1 0 0 0-.3-.1-.7-.1-1-.2-1.7-.3-3.5-.5-5.2-.1-.9-.1-1.8-.3-2.7-.2-.8-.7-1.5-1.3-2-1-.7-2.5-.8-3.6-.3-1.3.5-2.2 1.8-2.1 3.2.1 1.3.2 2.6.3 3.8.2 2.1.4 4.1.6 6.2.2 1.8.1 3.9 1.8 5 .9.6 1.8.7 2.9.6 1.6-.1 3.2-.3 4.8-.4h.4c-.2-.2-.5-.4-.7-.6.2 1.8.3 3.5.5 5.3.3 2.8.5 5.6.8 8.5.1.6.1 1.3.2 1.9.1-.2.3-.5.4-.7-.3.2-.7.4-.9.7-.5.6-.2 1.3.5 1.6-.1-.3-.2-.7-.2-1-.4.4-.3 1.1.1 1.4.3.3.8.4 1.3.5.8.2 1.7.2 2.6.2 1.5 0 3.1-.1 4.6-.2 1.8-.1 3.5-.3 5.3-.6 1-.2 2.1-.4 3.1-.7.5-.2 1-.3 1.4-.7.6-.4.8-1.1.3-1.7-.1.4-.1.7-.2 1.1.5-.3 1.2-.7 1.2-1.4 0-.2-.1-.5-.3-.6-.1-.1-.2-.1-.3-.2l-.1-.1s.1.1.2.1c.1.1 0 0 0 0 .1.2.1.1 0 0 0-.1-.1-.2-.1-.2v-.2-.1-.1c0-.1 0-.2-.1-.3-.1-.4-.1-.7-.2-1.1-.1-1-.3-1.9-.4-2.9-.2-1.4-.3-2.8-.5-4.2-.2.2-.4.5-.6.7 2-.2 4-.4 6.1-.5 2-.2 3.6-1.6 3.9-3.6.2-1.2-.1-2.6-.2-3.8-.1-1.5-.3-3-.4-4.5-.2-2.6-.5-5.1-.7-7.7 0-.4-.1-.8-.2-1.2-.4-1.3-1.5-2.2-2.9-2.4-.9 0-1.4 0-1.9.1-.8.1-.7 1.4.1 1.3.4 0 .8 0 1.3.1.3.1.5.1.9.3-.2-.1 0 0 0 0 .1 0 .1.1.2.1s.1.1.2.1c.1.1 0 0 0 0l.1.1c.1.1.1.2.2.3 0 .1.1.1.1.2-.1-.1 0 0 0 0 .1.2.1.4.2.5.1.2 0-.1 0 0v.4l.6 6.9c.2 2.6.5 5.1.7 7.7.1.8 0 1.6-.3 2.2 0 .1-.1.1-.1.2v.1c-.1.1.1-.1 0 0s-.2.2-.3.4c0 .1-.1.1-.2.2 0 0-.1 0-.1.1-.1.1-.2.2-.3.2-.1 0-.1.1-.2.1 0 0-.2.1-.1.1h-.1c-.1 0-.1 0-.2.1-.2.1-.3.1-.5.2h-.1.1-.2-.1c-2 .2-4 .4-6 .5h-.2c-.4 0-.6.4-.6.7.2 2.1.4 4.3.8 6.4.1.7.2 1.4.3 2 .1.4.2.9.4 1.2.1.1.2.3.4.3-.1 0 0 0 0 0l-.1-.2v-.2s.1-.1 0 0l-.1.1c-.1 0-.1.1-.2.1 0 0-.2.1-.1 0-.5.2-.5.7-.2 1.1l-.1-.1c-.1-.2-.1-.2-.1-.1v-.1-.1c0 .1.1-.2 0-.1s.1-.2 0 0v.1c-.1.1.2-.1 0 0-.1 0-.1.1-.2.1 0 0-.1 0-.1.1-.2.1.1-.1 0 0-.2.1-.5.2-.7.3-.3.1-.7.2-1.1.3 0 0-.3.1-.2 0-.1 0-.2 0-.3.1-.3.1-.5.1-.8.2-3.1.6-6.2.8-9.4.9h-2.2c-.2 0-.4 0-.6-.1-.3 0-.6-.1-.8-.1h-.1c-.2 0 .2.1 0 0-.1 0-.2-.1-.2-.1l-.1-.1s.2.1.1 0c-.2-.1.1.1 0 0s.1.2 0 0v.2c0-.2-.1.2 0 0 0-.1-.1.2 0 .1.3-.3.1-.8-.2-1-.1 0-.1-.1-.1 0 .1.1.1.3 0 .4 0 0 0-.1.1-.1-.1.1 0 0 0 0 .1-.1.2-.1.2-.2.2-.1-.1.1 0 0 .3-.1.5-.4.4-.7-.2-1.8-.3-3.5-.5-5.3-.3-2.8-.5-5.6-.8-8.5-.1-.6-.1-1.3-.2-1.9 0-.4-.4-.6-.7-.6-1.4.1-2.7.2-4.1.4-.6.1-1.1.1-1.7.2h-.2c-.2 0 .1 0 0 0h-.2c-.1 0-.3 0-.4-.1-.1 0-.1 0-.2-.1.2.1-.1 0-.1-.1-.1 0-.2-.1-.2-.1s-.1 0-.1-.1c-.1-.1.1.1-.1 0-.3-.2-.5-.5-.7-.8-.4-.7-.4-1.6-.4-2.4-.2-1.9-.3-3.8-.5-5.7-.1-1.6-.3-3.2-.4-4.8v-.6-.2-.2-.1c0-.1-.1.1 0 0 .1-.2.1-.3.2-.4l.1-.1.1-.1c.1-.1-.1 0 0 0 .2-.1.3-.2.5-.3.2-.1.5-.2.8-.2.3 0 .6-.1.8 0 .1 0 .3 0 .4.1 0 0 .1 0 0 0 .1 0 .1.1.2.1 0 0 .1 0 .1.1 0 0 .2.1.1 0 .6.1.7.2.7.2l.1.1c.1.1.1.2.2.3 0 .1.1.1.1.2 0 0 .1.1 0 0 0 0 0 .1.1.1.1.1.1.3.2.5 0 .1 0 .1.1.2 0 .2 0-.2 0 0v.4c0 .6.1 1.1.1 1.7.2 1.7.3 3.4.5 5.2 0 .4.1.8.1 1.2.1.9.8 1.5 1.8 1.5.6 0 1.3-.1 1.9-.2.4 0 .6-.4.6-.7-.1-1.5-.3-3.1-.4-4.6-.1-1.6-.3-3.2-.4-4.8-.1-1.6-.2-3.3 0-4.9.1-.7.2-1.4.4-2 .1-.3.2-.6.2-.8.1-.3.2-.5.3-.8.2-.5.4-.9.7-1.4-.1.1 0 0 0 0 0-.1.1-.1.1-.2.1-.1.1-.2.2-.3.1-.2.3-.3.4-.5.1-.2.3-.3.4-.4l.1-.1s-.1.1 0 0c.2-.2.3-.2.4-.3l.9-.6c.1-.1.3-.2.4-.2.1-.1-.1.1 0 0h.1c.1 0 .1-.1.2-.1.2-.1.5-.2.7-.3.2-.1.4-.1.6-.2.2 0 0 0 0 0H16.4c.6-.1 1.3-.1 1.8 0 .3 0 .6.1.9.2.1 0 .3.1.4.1h.1c.1 0 .1 0 .2.1.3.1.5.2.7.3.1.1.2.1.3.2.1 0 .1.1.2.1 0 0 .1.1 0 0h.1c.4.3.8.6 1.2 1l.1.1.1.1.1.1c0 .1.1.1.1.2.2.2.3.4.5.6.3.4.6.9.8 1.3.1.1 0-.1 0 .1 0-.1 0-.1 0 0 .1.1.1.2.2.4s.2.5.3.7c.4.9.7 1.8.9 2.7 0 .1.1.2.1.3V10.4c0 .1 0-.1 0 0 0 .2.1.4.1.6.1.3.1.7.2 1 .1.7.2 1.4.2 2.1.3 3.4.5 6.8.8 10.2l.3 3.3c0 .4.4.6.7.6 1.1-.1 2.5 0 3-1.2.1-.4.2-.7.1-1.1l-.3-3.6c-.1-1.6-.3-3.2-.4-4.8-.1-.6-.1-1.2-.1-1.9 0-.2 0 .1 0 0v-.2c0-.2 0-.3.1-.5 0-.1 0-.2.1-.3v-.1-.1c.1-.2.2-.4.2-.5 0 0 .1-.1 0 0l.1-.1c.1-.1.1-.2.2-.2.1-.2.2-.2.4-.4.4-.3.9-.4 1.5-.5.9-.2.8-1.5 0-1.4z"/><g class="st1"><path class="st0" d="M22.3 9.2l1.5 16.2"/><path d="M21.7 9.2c.2 1.8.3 3.7.5 5.5.3 2.9.5 5.8.8 8.7.1.7.1 1.3.2 2 .1.8 1.4.7 1.3-.1-.2-1.8-.3-3.7-.5-5.5-.3-2.9-.5-5.8-.8-8.7-.1-.7-.1-1.3-.2-2-.1-.9-1.4-.7-1.3.1z"/></g><g class="st1"><path class="st0" d="M19.3 27.9l1.2 14.2"/><path d="M18.6 28c.1 1.6.3 3.2.4 4.8.2 2.5.5 5.1.7 7.6.1.6.1 1.2.2 1.7.1.8 1.4.7 1.3-.1-.1-1.6-.3-3.2-.4-4.8-.2-2.5-.5-5.1-.7-7.6-.1-.6-.1-1.2-.2-1.7-.1-.9-1.4-.8-1.3.1z"/></g><g class="st1"><path class="st0" d="M13.6 6.2l.7 7.4"/><path d="M12.9 6.3c.2 2.1.4 4.3.6 6.4 0 .3.1.6.1.9.1.8 1.4.7 1.3-.1-.2-2.1-.4-4.3-.6-6.4 0-.3-.1-.6-.1-.9 0-.9-1.3-.7-1.3.1z"/></g><path d="M300.2 17.7c-3.2-.6-2.2 2.7-3.3 4.8-.5 1-2.8 1.2-4.7 1.1-.8-8.8-7.6-16.2-16.8-17.4-9.2-1.2-17.7 4.1-20.7 12.4-1.5-.3-3.3-.8-4.1-1.5-1.5-1.3 1.9-6.3-3.1-5.3s-6.9 7-4.6 10.3c1.6 2.3 7.5 2.7 10.6 2.8-.2 9.6 7 18.1 16.9 19.4 10 1.3 19.2-5.1 21.4-14.5 3.2.5 10.6 1.4 11.5-1.2 1.4-4.2-.4-10.4-3.1-10.9z" fill="#a8509e"/><path d="M300.3 16.9c-.8-.1-1.7-.1-2.4.4-.6.5-.8 1.2-1 1.9-.2.7-.2 1.4-.4 2.1v.1c0 .1-.1.2-.1.2-.1.2-.1.4-.2.5.1-.2-.1.1 0 0l-.1.1-.1.1c-.1 0-.2.1-.3.1-1 .3-2.1.3-3.2.3l.7.7C292.6 16.3 288 10 281.5 7c-6.6-3-14.5-2.3-20.4 2-3.2 2.3-5.7 5.5-7 9.2.3-.2.6-.3.9-.5-.9-.2-1.8-.4-2.7-.8-.3-.1-.6-.3-.9-.5-.1 0-.1-.1-.2-.1.2.1.1.1 0 0v.1c0-.1 0-.1-.1-.2-.1-.2 0 .1 0-.1v-.2-.1-.3c0-.4.1-.9.1-1.3.1-.9.1-1.9-.5-2.6-.8-1-2.4-.9-3.5-.6-2.9.7-5.1 3-5.8 5.8-.6 2.4-.1 5.5 2.2 6.9 1.5.9 3.2 1.3 4.9 1.5 1.6.3 3.3.4 5 .4-.2-.3-.5-.6-.7-.9-.1 3.9 1 7.6 3 10.9 2 3.2 4.9 5.8 8.4 7.5 3.6 1.7 7.6 2.4 11.5 1.9 3.8-.5 7.4-2 10.3-4.5 2.9-2.4 5.1-5.6 6.3-9.3.2-.5.3-1 .4-1.5-.3.2-.6.5-.9.7 1.6.2 3.2.4 4.8.5 1.7.1 3.4.1 5.1-.3.7-.2 1.3-.4 1.8-.9.6-.6.9-1.4 1-2.3.4-2.1.2-4.4-.4-6.4-.7-1.6-1.8-3.7-3.8-4.1-1-.2-1.2 1.4-.2 1.6 0 0 .2.1.1 0 .1 0 .1 0 .2.1.1 0 .1.1.2.1-.2-.1.1 0 .1 0 .3.2.4.3.7.6.5.6.8 1.3 1.1 2.1.6 1.7.8 3.7.5 5.5l-.3 1.2c0 .1-.2.4-.1.2 0 .1-.3.3-.1.2l-.2.2s-.1.1-.2.1c.2-.1 0 0 0 0-.1.1-.2.1-.4.2-.1 0-.1 0-.2.1 0 0-.3.1-.2.1-1.5.4-3 .4-4.4.3-1.6-.1-3.3-.3-4.9-.5-.5-.1-.8.3-.9.7-1.6 6.9-7.4 12.2-14.3 13.6-7.1 1.4-14.6-1.4-18.9-7.3-2.3-3.2-3.6-7-3.5-10.9 0-.4-.2-.9-.7-.9-1.4 0-2.7-.1-4.1-.3-1.4-.2-2.8-.4-4.1-.9-.6-.2-1-.4-1.5-.9-.3-.3-.6-.6-.7-1.1-.4-1-.5-2-.3-3.1s.7-2.2 1.4-3.1c.8-.9 1.8-1.7 3-2 .3-.1.6-.1.9-.2h.5s.2 0 0 0h.2c.1 0 .2 0 .3.1-.2-.1.1 0 .1.1.2.1-.1-.1 0 0 0 0 .1 0 .1.1.1 0 .1.2 0 0l.1.1v-.1s0 .1.1.1v.1c.1.2 0-.2 0 0s.1.3.1.5 0-.2 0 0v.4c0 .2 0 .4-.1.7-.1.9-.3 2 .3 2.9.4.6 1.1.9 1.8 1.2 1 .4 2 .7 3 .9.3.1.7-.2.9-.5 2.3-6.1 7.8-10.7 14.2-11.8 6.6-1.1 13.5 1.4 17.7 6.6 2.3 2.8 3.7 6.3 4 10 0 .3.4.7.7.7 1 0 2.1 0 3.1-.2.9-.2 1.9-.5 2.3-1.4.4-.7.5-1.5.7-2.2.1-.3.1-.7.2-1 0-.1 0-.2.1-.3v-.1s0 .1 0 0 .1-.3.2-.4V19c.1-.1-.1.1 0 0 0-.1.1-.1.1-.2-.1.1 0 0 .1 0 .1-.1 0 0 .1 0 0 0 .1 0 .1-.1-.1 0-.1 0 0 0h.3c.2 0 .4 0 .6.1.9-.1 1.1-1.7.1-1.9z"/><ellipse transform="rotate(-82.473 260.625 10.63)" class="st3" cx="260.6" cy="10.6" rx="6.2" ry="6.4"/><path d="M266.2 11.4c-.3 2.2-2.1 4.1-4.3 4.5-2.3.5-4.7-.5-6.1-2.4-1.3-1.9-1.1-4.5.3-6.2 1.5-1.8 4-2.4 6.2-1.7 2.6.8 4.2 3.1 3.9 5.8-.1 1 1.5 1.3 1.6.2.4-3-1.3-5.8-3.9-7.2-2.6-1.3-6-.9-8.2 1-2.2 2-3 5.2-1.7 7.9 1.3 2.8 4.2 4.4 7.2 4.2 3.3-.2 6.2-2.7 6.6-6 .2-1-1.4-1.2-1.6-.1z"/><circle cx="260.7" cy="12.5" r="2.7"/><ellipse transform="rotate(-82.473 287.02 12.807)" class="st3" cx="287" cy="12.8" rx="7.3" ry="7.5"/><path d="M293.7 13.7c-.4 2.7-2.5 4.9-5.2 5.4-2.8.6-5.7-.6-7.2-3-1.5-2.3-1.3-5.3.4-7.4 1.7-2.1 4.8-2.9 7.4-2.1 3 1.1 5 3.9 4.6 7.1-.1 1 1.5 1.3 1.6.2.4-3.4-1.4-6.7-4.5-8.3-3-1.6-7-1.1-9.5 1.2s-3.4 6-1.9 9.1c1.5 3.2 4.8 5 8.3 4.8 3.8-.2 7.1-3.2 7.6-7 .2-.8-1.4-1-1.6 0z"/><circle cx="285.9" cy="14.4" r="3.2"/><ellipse transform="rotate(-82.473 273.517 7.491)" class="st3" cx="273.5" cy="7.5" rx="6.7" ry="6.9"/><path d="M279.6 8.3c-.3 2.5-2.3 4.5-4.7 4.9-2.5.5-5.1-.5-6.5-2.7-1.4-2.1-1.2-4.9.4-6.8 1.6-1.9 4.3-2.6 6.7-1.9 2.6 1 4.5 3.6 4.1 6.5-.1 1 1.5 1.3 1.6.2.4-3.2-1.3-6.2-4.2-7.7-2.8-1.4-6.5-1-8.8 1.1-2.4 2.1-3.2 5.6-1.8 8.5 1.4 3 4.5 4.7 7.7 4.5 3.6-.2 6.6-2.9 7.1-6.5.2-.9-1.4-1.1-1.6-.1z"/><circle cx="272.2" cy="6.7" r="2.9"/><path d="M261.9 21.4s7.6-3.9 22.1 1.8c0 0 4.2 1.1 1.1 8.3s-13.4 6.9-13.4 6.9-9.6-1.3-11.7-5.9c-2.2-4.6-.4-10.3 1.9-11.1z"/><path class="st3" d="M264.6 22.1s.5 4.4 2 5.7c1.5 1.3 2.9-5.6 2.9-5.6s-1-1.2-4.9-.1zM281.8 23.9s-2-1.4-3.7-1c-1.7.3-.8 6.4-.8 6.4s1.3 1.8 4.5-5.4z"/><path class="st4" d="M288.9 29.9c-.9 2.1-2 4-3.4 5.8-.7.8-1.4 1.6-2.3 2.2-.9.6-1.9 1.1-2.8 1.6-.9.5-.3 2 .6 1.5 1.1-.5 2.2-1.1 3.1-1.8 1-.7 1.8-1.5 2.5-2.4 1.5-1.9 2.8-4 3.7-6.3.5-1-1-1.6-1.4-.6zM299.4 20.7c.1 0 .2.1.3.3l.3.6c.2.6.3 1.1.4 1.7.2 1.1.2 2.3-.3 3.3-.4 1 1.1 1.6 1.5.6.6-1.4.6-2.9.3-4.4-.1-.7-.3-1.4-.6-2.1-.2-.7-.7-1.3-1.3-1.5-.9-.4-1.6 1.1-.6 1.5zM288.9 21.9c.1.2.2.5.2.7 0-.1 0-.1-.1-.2.1.5.2 1.1.3 1.6 0 .4.5.8.9.7.5-.1.7-.5.7-.9-.1-.9-.3-1.7-.6-2.6-.1-.4-.7-.6-1.1-.4-.2.2-.4.6-.3 1.1z"/><path class="st5" d="M56.3 21.3c-.6-.5-1.3-.9-2.1-1.1-.8-.3-1.7-.4-2.5-.4-.9 0-1.7.2-2.5.5-.7.3-1.4.8-1.9 1.4-.5.6-1 1.3-1.3 2.1-.3.8-.5 1.7-.5 2.6 0 .9.2 1.8.5 2.6s.8 1.5 1.4 2.1c.6.6 1.3 1 2.1 1.4.8.3 1.6.5 2.5.5 1.1 0 2-.2 2.9-.7.9-.5 1.6-1.1 2.2-1.8h-2.8V24h12v10.4c-.7 1.3-1.6 2.4-2.6 3.5-1 1-2.1 1.9-3.3 2.7-1.2.7-2.6 1.3-4 1.7-1.4.4-2.9.6-4.4.6-2.2 0-4.4-.4-6.3-1.3-2-.8-3.7-2-5.2-3.5s-2.6-3.2-3.5-5.2c-.9-2-1.3-4.1-1.3-6.4 0-2.2.4-4.4 1.2-6.3.8-2 1.9-3.7 3.3-5.2s3.1-2.6 5-3.5c1.9-.9 4-1.3 6.3-1.3 1.7 0 3.3.2 4.5.5 1.3.3 2.3.7 3.2 1.2 1 .5 1.9 1 2.6 1.6l-5.5 7.8zm.5-6c-.4-.2-.9-.3-1.4-.5-.4-.1-.9-.2-1.5-.3-.6-.1-1.2-.1-2-.1-1.6 0-3.2.3-4.6.9-1.4.6-2.7 1.4-3.7 2.5-1.1 1-1.9 2.3-2.5 3.8-.6 1.5-.9 3.1-.9 4.9s.3 3.4.9 4.9c.6 1.5 1.5 2.7 2.6 3.8 1.1 1 2.4 1.9 3.8 2.4 1.4.6 3 .9 4.6.9 2.1 0 4.1-.5 5.8-1.5 1.7-1 3.2-2.4 4.2-4v-6.1h-4.9V28H61v4.7c-1 1.4-2.2 2.6-3.8 3.4-1.5.8-3.2 1.3-5.1 1.3-1.5 0-2.9-.3-4.2-.8-1.3-.5-2.4-1.2-3.4-2.2-1-.9-1.8-2.1-2.3-3.4-.6-1.3-.8-2.8-.8-4.4 0-1.6.3-3 .8-4.4.5-1.3 1.3-2.5 2.2-3.4.9-.9 2.1-1.7 3.3-2.2 1.3-.5 2.7-.8 4.2-.8.6 0 1.1 0 1.6.1s.9.2 1.3.3c.4.1.8.2 1.2.4l.8-1.3zM69 10.7h10.7c2 0 3.8.3 5.5.8 1.7.5 3.2 1.3 4.4 2.3 1.2 1 2.2 2.3 2.9 3.8.7 1.5 1.1 3.2 1.1 5.2 0 1.6-.2 2.9-.7 4-.4 1.1-.9 2-1.4 2.7-.6.8-1.3 1.5-2.1 2.1l5.8 10.3H83.6L78.9 34v7.9H69V10.7zM78.7 31c1.2 0 2.4-.1 3.5-.4l4.4 7.5H88l-4.7-7.8c1.7-.6 3-1.5 4-2.7 1-1.2 1.5-2.8 1.5-4.8 0-1.4-.3-2.6-.8-3.6s-1.3-1.9-2.2-2.6c-.9-.7-2-1.2-3.2-1.6-1.2-.4-2.6-.5-4.1-.5h-5v23.7h1.2V31h4zm-3.8-1.1V15.6h3.8c2.8 0 5 .6 6.6 1.9 1.6 1.2 2.4 3 2.4 5.3s-.8 4.1-2.4 5.3c-1.6 1.2-3.8 1.8-6.6 1.8h-3.8zm4-3.8h.5c1.2 0 2.2-.3 3-.8.8-.5 1.2-1.4 1.2-2.7 0-1.2-.4-2.1-1.2-2.7-.8-.5-1.8-.8-3-.8h-.5v7zM96.2 10.7h10.5v31.1H96.2V10.7zm5.9 27.4V14.5h-1.2v23.7h1.2zM110 41.9V10.7h8.6c2.9 0 5.5.3 7.8 1s4.2 1.6 5.8 2.9c1.6 1.3 2.8 2.9 3.6 4.9.8 1.9 1.2 4.2 1.2 6.7 0 2.6-.4 4.8-1.2 6.7-.8 1.9-2 3.6-3.6 4.9-1.6 1.3-3.5 2.3-5.8 3-2.3.7-4.9 1-7.8 1H110zm4.7-3.8h4c4.5 0 8-1 10.3-3.1 2.3-2.1 3.5-5 3.5-8.8 0-3.8-1.2-6.7-3.5-8.7-2.3-2.1-5.7-3.1-10.3-3.1h-4v23.7zm1.2-1.1V15.6h2.8c4 0 7 .9 9.2 2.7 2.2 1.8 3.3 4.5 3.3 8s-1.1 6.2-3.3 8c-2.2 1.8-5.3 2.7-9.2 2.7h-2.8zm4.1-4c2.3 0 4.1-.6 5.4-1.7 1.3-1.1 1.9-2.8 1.9-5.1s-.6-4-1.9-5c-1.3-1.1-3.1-1.6-5.4-1.6V33zM137.1 10.7h10.5l3.6 10.9 3.6-10.9h6.8l3.6 10.9 3.6-10.9h10.5L169 41.8h-7.7l-3.1-9.4-3.1 9.4h-7.7l-10.3-31.1zM152 38.1l6.2-19.6 6.2 19.6h1.2l7.8-23.7h-1.3L165 36l-6.8-21.5-6.8 21.5-7.1-21.5H143l7.8 23.7h1.2zM184.6 10.7h7.5l11.8 31.1h-9.8l-1-2.8h-9.4l-1 2.8h-9.8l11.7-31.1zm-4.8 27.4l.9-2.3h15.4l.9 2.3h1.3l-9-23.7h-1.8l-9 23.7h1.3zm8.6-22.5l7.3 19.1h-14.6l7.3-19.1zm2.1 16.6l-2.1-5.5-2.1 5.5h4.2zM204.6 10.7h10.7c2 0 3.8.3 5.5.8 1.7.5 3.2 1.3 4.4 2.3 1.2 1 2.2 2.3 2.9 3.8.7 1.5 1.1 3.2 1.1 5.2 0 1.6-.2 2.9-.7 4-.4 1.1-.9 2-1.4 2.7-.6.8-1.3 1.5-2.1 2.1l5.8 10.3h-11.7l-4.7-7.9v7.9h-9.9V10.7zm9.7 20.3c1.2 0 2.4-.1 3.5-.4l4.4 7.5h1.4l-4.7-7.8c1.7-.6 3-1.5 4-2.7 1-1.2 1.5-2.8 1.5-4.8 0-1.4-.3-2.6-.8-3.6s-1.3-1.9-2.2-2.6c-.9-.7-2-1.2-3.2-1.6-1.2-.4-2.6-.5-4.1-.5h-5v23.7h1.2V31h4zm-3.8-1.1V15.6h3.8c2.8 0 5 .6 6.6 1.9 1.6 1.2 2.4 3 2.4 5.3s-.8 4.1-2.4 5.3c-1.6 1.2-3.8 1.8-6.6 1.8h-3.8zm4.1-3.8h.5c1.2 0 2.2-.3 3-.8.8-.5 1.2-1.4 1.2-2.7 0-1.2-.4-2.1-1.2-2.7-.8-.5-1.8-.8-3-.8h-.5v7z"/><path class="st5" d="M231 32.2c.7.2 1.4.4 2.1.5.6.2 1.3.3 2.1.4.8.1 1.6.1 2.4.1 1.4 0 2.1-.5 2.1-1.6 0-.4-.2-.8-.7-1.2-.4-.4-1-.9-1.7-1.4-.7-.5-1.4-1.1-2.1-1.7-.8-.6-1.5-1.3-2.1-2.1-.7-.8-1.2-1.7-1.7-2.7-.4-1-.7-2.2-.7-3.5 0-1.5.3-2.8.8-3.9s1.3-2.1 2.2-2.8c.9-.7 2-1.3 3.3-1.7 1.3-.4 2.6-.6 4-.6.7 0 1.5 0 2.2.1.7.1 1.4.1 2 .2.7.1 1.4.2 2 .3v8.7c-.2 0-.5-.1-.8-.1-.2 0-.5-.1-.8-.1h-1.7c-.3 0-.5.1-.8.1-.2.1-.5.2-.7.3-.2.2-.3.4-.3.7 0 .2.2.6.6.9.4.4.9.8 1.5 1.3s1.3 1.1 2 1.7c.7.7 1.4 1.4 2 2.2.6.8 1.1 1.8 1.5 2.8.4 1.1.6 2.2.6 3.5 0 1.4-.2 2.7-.7 3.9-.4 1.2-1.1 2.2-2 3.1-.9.9-2.1 1.6-3.5 2.1s-3.1.8-5.1.8c-1.2 0-2.3-.1-3.3-.2s-1.9-.2-2.7-.4c-.9-.2-1.7-.3-2.5-.6v-9.1zm3.9 5.6c.4.1.9.2 1.4.2.4.1.9.1 1.4.2.5 0 1 .1 1.5.1.9 0 1.7-.1 2.5-.3.8-.2 1.6-.5 2.2-1s1.2-1.1 1.6-1.8c.4-.7.6-1.6.6-2.7 0-.9-.2-1.8-.7-2.6-.5-.8-1-1.6-1.7-2.3-.7-.7-1.4-1.5-2.2-2.1-.8-.7-1.5-1.4-2.2-2.1-.7-.7-1.3-1.4-1.7-2.1-.5-.7-.7-1.4-.7-2.2 0-1.1.4-2 1.1-2.6.7-.6 1.9-.9 3.5-.9h.8c.3 0 .5 0 .8.1h.7v-1.2h-.7c-.2 0-.5-.1-.7-.1h-.8c-1.7 0-3.1.4-4.2 1.1-1.1.8-1.6 2-1.6 3.6 0 .9.2 1.7.7 2.5.5.8 1 1.5 1.7 2.2.7.7 1.4 1.4 2.2 2.1.8.7 1.5 1.4 2.2 2.1.7.7 1.3 1.4 1.7 2.2.5.7.7 1.5.7 2.3 0 1.5-.5 2.6-1.5 3.4-1 .8-2.4 1.2-4.2 1.2-1.1 0-2-.1-2.9-.2-.5-.1-.9-.1-1.4-.2v1.1z"/><path class="st6" d="M54.3 18.7c-.6-.5-1.3-.9-2.1-1.1-.8-.3-1.7-.4-2.5-.4-.9 0-1.7.2-2.5.5-.7.3-1.4.8-1.9 1.4-.5.6-1 1.3-1.3 2.1-.3.8-.5 1.7-.5 2.6 0 .9.2 1.8.5 2.6s.8 1.5 1.4 2.1c.6.6 1.3 1 2.1 1.4.8.3 1.6.5 2.5.5 1.1 0 2-.2 2.9-.7.9-.5 1.6-1.1 2.2-1.8h-2.8v-6.5h12v10.4c-.7 1.3-1.6 2.4-2.6 3.5-1 1-2.1 1.9-3.3 2.7-1.2.7-2.6 1.3-4 1.7-1.4.4-2.9.6-4.4.6-2.2 0-4.4-.4-6.3-1.3-2-.8-3.7-2-5.2-3.5s-2.6-3.2-3.5-5.2c-.9-2-1.3-4.1-1.3-6.4 0-2.2.4-4.4 1.2-6.3.8-2 1.9-3.7 3.3-5.2s3.1-2.6 5-3.5c1.9-.9 4-1.3 6.3-1.3 1.7 0 3.3.2 4.5.5 1.3.3 2.3.7 3.2 1.2 1 .5 1.9 1 2.6 1.6l-5.5 7.8zm.5-6c-.4-.2-.9-.3-1.4-.5-.4-.1-.9-.2-1.5-.3-.6-.1-1.2-.1-2-.1-1.6 0-3.2.3-4.6.9-1.4.6-2.7 1.4-3.7 2.5-1.1 1-1.9 2.3-2.5 3.8-.6 1.5-.9 3.1-.9 4.9s.3 3.4.9 4.9c.6 1.5 1.5 2.7 2.6 3.8 1.1 1 2.4 1.9 3.8 2.4 1.4.6 3 .9 4.6.9 2.1 0 4.1-.5 5.8-1.5 1.7-1 3.2-2.4 4.2-4v-6.1h-4.9v1.1H59v4.7c-1 1.4-2.2 2.6-3.8 3.4-1.5.8-3.2 1.3-5.1 1.3-1.5 0-2.9-.3-4.2-.8-1.3-.5-2.4-1.2-3.4-2.2-1-.9-1.8-2.1-2.3-3.4-.6-1.3-.8-2.8-.8-4.4 0-1.6.3-3 .8-4.4.5-1.3 1.3-2.5 2.2-3.4.9-.9 2.1-1.7 3.3-2.2 1.3-.5 2.7-.8 4.2-.8.6 0 1.1 0 1.6.1s.9.2 1.3.3c.4.1.8.2 1.2.4l.8-1.3zM67 8.1h10.7c2 0 3.8.3 5.5.8 1.7.5 3.2 1.3 4.4 2.3 1.2 1 2.2 2.3 2.9 3.8.7 1.5 1.1 3.2 1.1 5.2 0 1.6-.2 2.9-.7 4-.4 1.1-.9 2-1.4 2.7-.6.8-1.3 1.5-2.1 2.1l5.8 10.3H81.6l-4.7-7.9v7.9H67V8.1zm9.7 20.3c1.2 0 2.4-.1 3.5-.4l4.4 7.5H86l-4.7-7.8c1.7-.6 3-1.5 4-2.7 1-1.2 1.5-2.8 1.5-4.8 0-1.4-.3-2.6-.8-3.6s-1.3-1.9-2.2-2.6c-.9-.7-2-1.2-3.2-1.6-1.2-.4-2.6-.5-4.1-.5h-5v23.7h1.2v-7.1h4zm-3.8-1.1V12.9h3.8c2.8 0 5 .6 6.6 1.9 1.6 1.2 2.4 3 2.4 5.3s-.8 4.1-2.4 5.3c-1.6 1.2-3.8 1.8-6.6 1.8h-3.8zm4-3.9h.5c1.2 0 2.2-.3 3-.8.8-.5 1.2-1.4 1.2-2.7 0-1.2-.4-2.1-1.2-2.7-.8-.5-1.8-.8-3-.8h-.5v7zM94.2 8.1h10.5v31.1H94.2V8.1zm5.9 27.4V11.8h-1.2v23.7h1.2zM108 39.2V8.1h8.6c2.9 0 5.5.3 7.8 1s4.2 1.6 5.8 2.9c1.6 1.3 2.8 2.9 3.6 4.9.8 1.9 1.2 4.2 1.2 6.7 0 2.6-.4 4.8-1.2 6.7-.8 1.9-2 3.6-3.6 4.9-1.6 1.3-3.5 2.3-5.8 3-2.3.7-4.9 1-7.8 1H108zm4.7-3.7h4c4.5 0 8-1 10.3-3.1 2.3-2.1 3.5-5 3.5-8.8 0-3.8-1.2-6.7-3.5-8.7-2.3-2.1-5.7-3.1-10.3-3.1h-4v23.7zm1.2-1.1V12.9h2.8c4 0 7 .9 9.2 2.7 2.2 1.8 3.3 4.5 3.3 8s-1.1 6.2-3.3 8c-2.2 1.8-5.3 2.7-9.2 2.7h-2.8zm4.1-4.1c2.3 0 4.1-.6 5.4-1.7 1.3-1.1 1.9-2.8 1.9-5.1s-.6-4-1.9-5c-1.3-1.1-3.1-1.6-5.4-1.6v13.4z"/><path class="st7" d="M135.1 8.1h10.5l3.6 10.9 3.6-10.9h6.8l3.6 10.9 3.6-10.9h10.5L167 39.2h-7.7l-3.1-9.4-3.1 9.4h-7.7L135.1 8.1zM150 35.5l6.2-19.6 6.2 19.6h1.2l7.8-23.7h-1.3L163 33.3l-6.8-21.5-6.8 21.5-7.1-21.5H141l7.8 23.7h1.2zM182.6 8.1h7.5l11.8 31.1h-9.8l-1-2.8h-9.4l-1 2.8h-9.8l11.7-31.1zm-4.8 27.4l.9-2.3h15.4l.9 2.3h1.3l-9-23.7h-1.8l-9 23.7h1.3zm8.6-22.6l7.3 19.1h-14.6l7.3-19.1zm2.1 16.6l-2.1-5.5-2.1 5.5h4.2zM202.6 8.1h10.7c2 0 3.8.3 5.5.8 1.7.5 3.2 1.3 4.4 2.3 1.2 1 2.2 2.3 2.9 3.8.7 1.5 1.1 3.2 1.1 5.2 0 1.6-.2 2.9-.7 4-.4 1.1-.9 2-1.4 2.7-.6.8-1.3 1.5-2.1 2.1l5.8 10.3h-11.7l-4.7-7.9v7.9h-9.9V8.1zm9.7 20.3c1.2 0 2.4-.1 3.5-.4l4.4 7.5h1.4l-4.7-7.8c1.7-.6 3-1.5 4-2.7 1-1.2 1.5-2.8 1.5-4.8 0-1.4-.3-2.6-.8-3.6s-1.3-1.9-2.2-2.6c-.9-.7-2-1.2-3.2-1.6-1.2-.4-2.6-.5-4.1-.5h-5v23.7h1.2v-7.1h4zm-3.8-1.1V12.9h3.8c2.8 0 5 .6 6.6 1.9 1.6 1.2 2.4 3 2.4 5.3s-.8 4.1-2.4 5.3c-1.6 1.2-3.8 1.8-6.6 1.8h-3.8zm4.1-3.9h.5c1.2 0 2.2-.3 3-.8.8-.5 1.2-1.4 1.2-2.7 0-1.2-.4-2.1-1.2-2.7-.8-.5-1.8-.8-3-.8h-.5v7z"/><path class="st7" d="M229 29.5c.7.2 1.4.4 2.1.5.6.2 1.3.3 2.1.4.8.1 1.6.1 2.4.1 1.4 0 2.1-.5 2.1-1.6 0-.4-.2-.8-.7-1.2-.4-.4-1-.9-1.7-1.4-.7-.5-1.4-1.1-2.1-1.7-.8-.6-1.5-1.3-2.1-2.1-.7-.8-1.2-1.7-1.7-2.7-.4-1-.7-2.2-.7-3.5 0-1.5.3-2.8.8-3.9s1.3-2.1 2.2-2.8c.9-.7 2-1.3 3.3-1.7 1.3-.4 2.6-.6 4-.6.7 0 1.5 0 2.2.1.7.1 1.4.1 2 .2.7.1 1.4.2 2 .3v8.7c-.2 0-.5-.1-.8-.1-.2 0-.5-.1-.8-.1h-1.7c-.3 0-.5.1-.8.1-.2.1-.5.2-.7.3-.2.2-.3.4-.3.7 0 .2.2.6.6.9.4.4.9.8 1.5 1.3s1.3 1.1 2 1.7c.7.7 1.4 1.4 2 2.2.6.8 1.1 1.8 1.5 2.8.4 1.1.6 2.2.6 3.5 0 1.4-.2 2.7-.7 3.9-.4 1.2-1.1 2.2-2 3.1-.9.9-2.1 1.6-3.5 2.1s-3.1.8-5.1.8c-1.2 0-2.3-.1-3.3-.2s-1.9-.2-2.7-.4c-.9-.2-1.7-.3-2.5-.6v-9.1zm3.9 5.6c.4.1.9.2 1.4.2.4.1.9.1 1.4.2.5 0 1 .1 1.5.1.9 0 1.7-.1 2.5-.3.8-.2 1.6-.5 2.2-1s1.2-1.1 1.6-1.8c.4-.7.6-1.6.6-2.7 0-.9-.2-1.8-.7-2.6-.5-.8-1-1.6-1.7-2.3-.7-.7-1.4-1.5-2.2-2.1-.8-.7-1.5-1.4-2.2-2.1-.7-.7-1.3-1.4-1.7-2.1-.5-.7-.7-1.4-.7-2.2 0-1.1.4-2 1.1-2.6.7-.6 1.9-.9 3.5-.9h.8c.3 0 .5 0 .8.1h.7v-1.2h-.7c-.2 0-.5-.1-.7-.1h-.8c-1.7 0-3.1.4-4.2 1.1-1.1.8-1.6 2-1.6 3.6 0 .9.2 1.7.7 2.5.5.8 1 1.5 1.7 2.2.7.7 1.4 1.4 2.2 2.1.8.7 1.5 1.4 2.2 2.1.7.7 1.3 1.4 1.7 2.2.5.7.7 1.5.7 2.3 0 1.5-.5 2.6-1.5 3.4-1 .8-2.4 1.2-4.2 1.2-1.1 0-2-.1-2.9-.2-.5-.1-.9-.1-1.4-.2v1.1z"/></svg>